<?xml version="1.0" encoding="utf-8"?>
<!-- Generator: Adobe Illustrator 25.4.1, SVG Export Plug-In . SVG Version: 6.00 Build 0)  -->
<svg version="1.1" id="Layer_1" xmlns="http://www.w3.org/2000/svg" xmlns:xlink="http://www.w3.org/1999/xlink" x="0px" y="0px"
	 viewBox="0 0 2000 500" enable-background="new 0 0 2000 500" xml:space="preserve">
<circle opacity="0.35" fill="#FBC8BF" cx="250" cy="250" r="250"/>
<radialGradient id="SVGID_1_" cx="231.8535" cy="462.3612" r="456.4386" gradientTransform="matrix(0.9787 0 0 0.9787 21.2766 5.3191)" gradientUnits="userSpaceOnUse">
	<stop  offset="0" style="stop-color:#6B1D56"/>
	<stop  offset="0.1466" style="stop-color:#821E56"/>
	<stop  offset="0.3128" style="stop-color:#981E56"/>
	<stop  offset="0.4106" style="stop-color:#A01D56"/>
	<stop  offset="0.4799" style="stop-color:#A71E59"/>
	<stop  offset="0.6929" style="stop-color:#B91E63"/>
	<stop  offset="0.767" style="stop-color:#C84B5B"/>
	<stop  offset="0.8757" style="stop-color:#DF7547"/>
	<stop  offset="0.9563" style="stop-color:#EF8E2E"/>
	<stop  offset="0.9994" style="stop-color:#F89820"/>
</radialGradient>
<path fill="url(#SVGID_1_)" d="M430.12,343.13c7.7-16.78,16.14-33.71,23.26-51.24c6.97-17.12,11.19-34.96,12.22-53.88
	c2.27-42.24-6.25-81.95-22.99-120.04c-6.37-14.45-13.24-28.67-21.14-42.63c13.87,38.56,18.84,77.33,5.7,118.24
	c-0.87-14.3-1.05-27.39-2.6-40.34c-3-24.99-12.17-47.41-27.54-66.97c-25.44-32.4-59.3-49.39-97.48-58.68
	c-0.62-0.16-1.1-1.02-1.65-1.54c-2.7,0-5.42,0-8.12,0c17.54,7.46,33.83,17.25,47.03,31.47c22.49,24.24,35.86,52.89,39.41,86.99
	c3.32,31.93-1.77,61.44-18.24,88.42c-13.34,21.89-29.21,25.39-48.35,20.79c-15.24-3.65-24.74-21.21-26.31-36.16
	c-3-28.41,10.47-47.35,32.73-60.74c9.57-5.74,19.77-10.36,30.51-15.89c-1.52-1.23-3.37-3.63-5.72-4.44
	c-20.61-7.12-41.2-7.44-61.87,0.18c-3.35,1.23-7.25,0.89-10.89,1.28c-0.17-1.28-0.32-2.56-0.5-3.84
	c11.99-2.01,23.99-3.99,36.81-6.13c-4.97-9.08-14.14-12.11-22.99-11.58c-13.14,0.78-26.39,3.21-39.11,6.78
	c-17.12,4.8-33.98,2.32-50.98,0.78c-4.15-0.39-8.27-1.04-12.39-1.57c-0.45,0.91-0.92,1.83-1.37,2.74
	c11.24,8.9,22.46,17.82,33.93,26.9c-31.66,24.5-50.58,57.66-56.77,99.98c-10.82-9.68-17.17-21.47-22.34-33.81
	c-9.45-22.49-11.87-46.41-9.8-70.52c2.45-28.75,12.94-54.45,29.71-77.62C167.4,49.14,188.24,36.96,210.13,26c-2.7,0-5.42,0-8.12,0
	c-17.44,6.81-35.51,12.29-52.15,20.72c-39.01,19.65-63.59,52.6-74.06,96.14c-3.67,15.26-3.45,31.57-4.82,45.74
	c-5.4-12.55-8.52-40.83-5.65-55.26c3.77-19.07,7.5-38.17,10.82-55.16c-6.67,5.79-22.41,40.28-34.53,82.97
	c-8.8,30.97-11.39,62.67-5.8,95c5.47,31.49,18.22,59.59,34.23,86.46c-18.42-16.54-35.16-34.33-45.1-57.92
	c-1.35-3.18-3.27-6.11-4.95-9.16c0,2.82,0,5.66,0,8.48c8.67,21.52,16.19,43.62,26.29,64.37c12.39,25.52,30.09,46.86,51.8,64.83
	c29.89,24.73,65.29,37.41,99.73,52.42c15.49,6.76,30.98,13.59,46.48,20.38c3.25,0,6.5,0,9.75,0c11.02-5.09,21.96-10.33,33.08-15.21
	c27.29-11.98,55.35-22.33,81.83-36c34.93-18.03,61.62-46.02,81.34-81.43c12.64-22.67,21.51-46.73,28.14-71.85
	c0.25-0.94,1.05-1.7,1.57-2.56c0-2.27,0-4.51,0-6.78C468.46,300,451.86,323.95,430.12,343.13z"/>
<g>
	<path fill="#323232" d="M590.44,142.04v9.12h0.32c2.45-4.05,5.2-6.96,8.24-8.72c3.04-1.76,6.8-2.64,11.28-2.64
		c9.06,0,15.73,3.55,20,10.64c4.27,7.09,6.4,18.64,6.4,34.64s-2.14,27.47-6.4,34.4c-4.27,6.93-10.94,10.4-20,10.4
		c-4.16,0-7.71-0.77-10.64-2.32c-2.94-1.55-5.58-4.03-7.92-7.44h-0.32v35.68h-22.08V142.04H590.44z M593.56,206.28
		c1.44,4.75,4.61,7.12,9.52,7.12c4.8,0,7.92-2.37,9.36-7.12c1.44-4.75,2.16-11.81,2.16-21.2c0-9.38-0.72-16.45-2.16-21.2
		c-1.44-4.75-4.56-7.12-9.36-7.12c-4.91,0-8.08,2.38-9.52,7.12c-1.44,4.75-2.16,11.82-2.16,21.2
		C591.4,194.47,592.12,201.53,593.56,206.28z"/>
	<path fill="#323232" d="M671.4,113.88v36.96h0.32c4.27-7.36,11.25-11.04,20.96-11.04c7.04,0,12.45,1.92,16.24,5.76
		c3.79,3.84,5.68,10.08,5.68,18.72v63.84h-22.08v-59.36c0-4.48-0.75-7.6-2.24-9.36c-1.49-1.76-3.9-2.64-7.2-2.64
		c-7.79,0-11.68,4.75-11.68,14.24v57.12h-22.08V113.88H671.4z"/>
	<path fill="#323232" d="M728.2,165.56c1.17-5.65,3.09-10.37,5.76-14.16c2.67-3.79,6.16-6.67,10.48-8.64
		c4.32-1.97,9.62-2.96,15.92-2.96c6.61-0.1,12.1,0.78,16.48,2.64c4.37,1.87,7.84,4.72,10.4,8.56c2.56,3.84,4.37,8.59,5.44,14.24
		c1.07,5.66,1.6,12.27,1.6,19.84c0,7.36-0.59,13.87-1.76,19.52c-1.17,5.65-3.09,10.38-5.76,14.16c-2.67,3.79-6.16,6.59-10.48,8.4
		c-4.32,1.81-9.63,2.72-15.92,2.72c-6.62,0.11-12.11-0.72-16.48-2.48c-4.38-1.76-7.84-4.53-10.4-8.32
		c-2.56-3.79-4.38-8.53-5.44-14.24c-1.07-5.71-1.6-12.29-1.6-19.76C726.44,177.72,727.03,171.21,728.2,165.56z M748.84,197.24
		c0.21,3.74,0.72,6.93,1.52,9.6c0.8,2.67,2,4.75,3.6,6.24c1.6,1.5,3.73,2.24,6.4,2.24c4.48,0,7.57-2.34,9.28-7.04
		c1.71-4.69,2.56-12.42,2.56-23.2c0-10.77-0.86-18.5-2.56-23.2c-1.71-4.69-4.8-7.04-9.28-7.04c-2.67,0-4.8,0.75-6.4,2.24
		c-1.6,1.5-2.8,3.58-3.6,6.24c-0.8,2.67-1.31,5.87-1.52,9.6c-0.21,3.74-0.32,7.79-0.32,12.16
		C748.52,189.45,748.63,193.51,748.84,197.24z"/>
	<path fill="#323232" d="M825,195.32c0,2.56,0.18,5.04,0.56,7.44c0.37,2.4,0.99,4.54,1.84,6.4c0.85,1.87,1.97,3.36,3.36,4.48
		c1.38,1.12,3.09,1.68,5.12,1.68c3.73,0,6.45-1.33,8.16-4c1.71-2.67,2.88-6.72,3.52-12.16h19.84c-0.43,10.03-3.09,17.66-8,22.88
		c-4.91,5.23-12.64,7.84-23.2,7.84c-8,0-14.24-1.33-18.72-4c-4.48-2.67-7.79-6.18-9.92-10.56c-2.13-4.37-3.44-9.28-3.92-14.72
		c-0.48-5.44-0.72-10.88-0.72-16.32c0-5.76,0.4-11.3,1.2-16.64c0.8-5.33,2.4-10.08,4.8-14.24c2.4-4.16,5.84-7.46,10.32-9.92
		c4.48-2.45,10.45-3.68,17.92-3.68c6.4,0,11.65,1.04,15.76,3.12c4.1,2.08,7.33,5.02,9.68,8.8c2.34,3.79,3.95,8.38,4.8,13.76
		c0.85,5.39,1.28,11.39,1.28,18v4.96H825V195.32z M846.92,166.6c-0.32-2.51-0.88-4.64-1.68-6.4c-0.8-1.76-1.92-3.09-3.36-4
		c-1.44-0.91-3.28-1.36-5.52-1.36c-2.24,0-4.08,0.51-5.52,1.52c-1.44,1.01-2.59,2.35-3.44,4c-0.85,1.65-1.47,3.5-1.84,5.52
		c-0.38,2.03-0.56,4.06-0.56,6.08v3.36h22.56C847.45,172.01,847.24,169.11,846.92,166.6z"/>
	<path fill="#323232" d="M901.32,142.04v10.08h0.32c2.34-4.26,5.38-7.38,9.12-9.36c3.73-1.97,8-2.96,12.8-2.96
		c7.04,0,12.45,1.92,16.24,5.76c3.79,3.84,5.68,10.08,5.68,18.72v63.84H923.4v-59.36c0-4.48-0.75-7.6-2.24-9.36
		c-1.5-1.76-3.9-2.64-7.2-2.64c-7.79,0-11.68,4.75-11.68,14.24v57.12H880.2v-86.08H901.32z"/>
	<path fill="#323232" d="M983.08,112.6v18.88H961V112.6H983.08z M983.08,142.04v86.08H961v-86.08H983.08z"/>
	<path fill="#323232" d="M1063.08,142.04l-22.4,41.76l23.36,44.32H1041l-12.8-28.16l-12.8,28.16h-23.04l23.36-44.32l-22.4-41.76
		h23.04l11.84,25.92l11.84-25.92H1063.08z"/>
	<path fill="#323232" d="M572.04,283.88h37.44c10.24,0,18.75,1.6,25.52,4.8c6.77,3.2,12.19,7.47,16.24,12.8
		c4.05,5.33,6.91,11.42,8.56,18.24c1.65,6.83,2.48,13.87,2.48,21.12c0,8.11-1.04,15.66-3.12,22.64c-2.08,6.99-5.31,13.04-9.68,18.16
		c-4.38,5.12-9.9,9.15-16.56,12.08c-6.67,2.94-14.59,4.4-23.76,4.4h-37.12V283.88z M609.8,392.04c5.33,0,10.69-0.83,16.08-2.48
		c5.39-1.65,10.27-4.43,14.64-8.32c4.37-3.89,7.92-9.12,10.64-15.68c2.72-6.56,4.08-14.8,4.08-24.72c0-7.79-0.77-14.45-2.32-20
		c-1.55-5.54-3.58-10.21-6.08-14c-2.51-3.79-5.39-6.77-8.64-8.96c-3.26-2.18-6.62-3.87-10.08-5.04c-3.47-1.17-6.94-1.94-10.4-2.32
		c-3.47-0.37-6.59-0.56-9.36-0.56h-29.28v102.08H609.8z"/>
	<path fill="#323232" d="M678.76,283.88h76.8v6.08H685.8v45.76h65.6v6.08h-65.6v50.24h70.56v6.08h-77.6V283.88z"/>
	<path fill="#323232" d="M842.92,316.52c-0.21-4.91-1.25-9.17-3.12-12.8c-1.87-3.62-4.4-6.67-7.6-9.12
		c-3.2-2.45-7.01-4.29-11.44-5.52c-4.43-1.22-9.26-1.84-14.48-1.84c-3.2,0-6.64,0.38-10.32,1.12c-3.68,0.75-7.09,2.05-10.24,3.92
		c-3.15,1.87-5.74,4.38-7.76,7.52c-2.03,3.15-3.04,7.07-3.04,11.76c0,4.59,1.12,8.32,3.36,11.2s5.17,5.2,8.8,6.96
		c3.62,1.76,7.79,3.18,12.48,4.24c4.69,1.07,9.44,2.08,14.24,3.04c4.91,0.96,9.68,2.11,14.32,3.44c4.64,1.33,8.8,3.15,12.48,5.44
		c3.68,2.29,6.64,5.28,8.88,8.96c2.24,3.68,3.36,8.29,3.36,13.84c0,5.98-1.28,10.99-3.84,15.04c-2.56,4.06-5.79,7.36-9.68,9.92
		c-3.9,2.56-8.21,4.4-12.96,5.52c-4.75,1.12-9.31,1.68-13.68,1.68c-6.72,0-13.02-0.72-18.88-2.16c-5.87-1.44-10.99-3.78-15.36-7.04
		c-4.38-3.25-7.82-7.44-10.32-12.56c-2.51-5.12-3.71-11.36-3.6-18.72h7.04c-0.32,6.29,0.58,11.6,2.72,15.92
		c2.13,4.32,5.09,7.87,8.88,10.64c3.79,2.78,8.24,4.78,13.36,6c5.12,1.23,10.5,1.84,16.16,1.84c3.41,0,7.06-0.42,10.96-1.28
		c3.89-0.85,7.46-2.29,10.72-4.32c3.25-2.03,5.97-4.69,8.16-8c2.18-3.3,3.28-7.46,3.28-12.48c0-4.8-1.12-8.72-3.36-11.76
		s-5.2-5.49-8.88-7.36c-3.68-1.87-7.84-3.36-12.48-4.48c-4.64-1.12-9.42-2.16-14.32-3.12c-4.8-0.96-9.55-2.08-14.24-3.36
		c-4.7-1.28-8.86-3.01-12.48-5.2c-3.63-2.19-6.56-5.01-8.8-8.48c-2.24-3.46-3.36-7.92-3.36-13.36c0-5.44,1.15-10.11,3.44-14
		c2.29-3.89,5.28-7.04,8.96-9.44s7.81-4.16,12.4-5.28c4.58-1.12,9.12-1.68,13.6-1.68c5.97,0,11.54,0.67,16.72,2
		c5.17,1.33,9.71,3.42,13.6,6.24c3.89,2.83,7.01,6.48,9.36,10.96c2.35,4.48,3.68,9.87,4,16.16H842.92z"/>
	<path fill="#323232" d="M869.16,283.88h7.04v114.24h-7.04V283.88z"/>
	<path fill="#323232" d="M892.2,341.64c0-8.1,1.2-15.81,3.6-23.12c2.4-7.31,5.89-13.73,10.48-19.28c4.58-5.54,10.21-9.95,16.88-13.2
		c6.67-3.25,14.32-4.88,22.96-4.88c5.87,0,11.46,0.85,16.8,2.56c5.33,1.71,10.11,4.22,14.32,7.52c4.21,3.31,7.76,7.31,10.64,12
		c2.88,4.7,4.8,10.03,5.76,16h-6.72c-2.67-10.03-7.47-17.87-14.4-23.52c-6.94-5.65-15.68-8.48-26.24-8.48
		c-7.68,0-14.46,1.5-20.32,4.48c-5.87,2.99-10.77,6.99-14.72,12c-3.95,5.02-6.93,10.8-8.96,17.36c-2.03,6.56-3.04,13.42-3.04,20.56
		c0,7.26,0.99,14.11,2.96,20.56c1.97,6.46,4.91,12.08,8.8,16.88c3.89,4.8,8.77,8.62,14.64,11.44c5.86,2.83,12.75,4.24,20.64,4.24
		c6.83,0,12.96-1.12,18.4-3.36c5.44-2.24,10.05-5.39,13.84-9.44c3.79-4.05,6.64-8.93,8.56-14.64c1.92-5.71,2.72-12.08,2.4-19.12
		H947.4v-6.08h48.16v56h-6.08V373.8h-0.32c-1.39,4.16-3.47,7.92-6.24,11.28c-2.77,3.36-6.05,6.19-9.84,8.48
		c-3.79,2.29-8,4.08-12.64,5.36c-4.64,1.28-9.47,1.92-14.48,1.92c-8.64,0-16.29-1.55-22.96-4.64c-6.67-3.09-12.29-7.3-16.88-12.64
		c-4.59-5.33-8.05-11.6-10.4-18.8C893.37,357.56,892.2,349.85,892.2,341.64z"/>
	<path fill="#323232" d="M1014.92,283.88h8.8l72.16,104.8h0.32v-104.8h7.04v114.24h-8.32l-72.64-105.6h-0.32v105.6h-7.04V283.88z"/>
	<path fill="#323232" d="M1242.44,316.52c-0.21-4.91-1.25-9.17-3.12-12.8c-1.87-3.62-4.4-6.67-7.6-9.12
		c-3.2-2.45-7.01-4.29-11.44-5.52c-4.43-1.22-9.26-1.84-14.48-1.84c-3.2,0-6.64,0.38-10.32,1.12c-3.68,0.75-7.09,2.05-10.24,3.92
		c-3.15,1.87-5.74,4.38-7.76,7.52c-2.03,3.15-3.04,7.07-3.04,11.76c0,4.59,1.12,8.32,3.36,11.2s5.17,5.2,8.8,6.96
		c3.62,1.76,7.79,3.18,12.48,4.24c4.69,1.07,9.44,2.08,14.24,3.04c4.91,0.96,9.68,2.11,14.32,3.44c4.64,1.33,8.8,3.15,12.48,5.44
		c3.68,2.29,6.64,5.28,8.88,8.96c2.24,3.68,3.36,8.29,3.36,13.84c0,5.98-1.28,10.99-3.84,15.04c-2.56,4.06-5.79,7.36-9.68,9.92
		c-3.9,2.56-8.21,4.4-12.96,5.52c-4.75,1.12-9.31,1.68-13.68,1.68c-6.72,0-13.02-0.72-18.88-2.16c-5.87-1.44-10.99-3.78-15.36-7.04
		c-4.38-3.25-7.82-7.44-10.32-12.56c-2.51-5.12-3.71-11.36-3.6-18.72h7.04c-0.32,6.29,0.58,11.6,2.72,15.92
		c2.13,4.32,5.09,7.87,8.88,10.64c3.79,2.78,8.24,4.78,13.36,6c5.12,1.23,10.5,1.84,16.16,1.84c3.41,0,7.06-0.42,10.96-1.28
		c3.89-0.85,7.46-2.29,10.72-4.32c3.25-2.03,5.97-4.69,8.16-8c2.18-3.3,3.28-7.46,3.28-12.48c0-4.8-1.12-8.72-3.36-11.76
		s-5.2-5.49-8.88-7.36c-3.68-1.87-7.84-3.36-12.48-4.48c-4.64-1.12-9.42-2.16-14.32-3.12c-4.8-0.96-9.55-2.08-14.24-3.36
		c-4.7-1.28-8.86-3.01-12.48-5.2c-3.63-2.19-6.56-5.01-8.8-8.48c-2.24-3.46-3.36-7.92-3.36-13.36c0-5.44,1.15-10.11,3.44-14
		c2.29-3.89,5.28-7.04,8.96-9.44s7.81-4.16,12.4-5.28c4.58-1.12,9.12-1.68,13.6-1.68c5.97,0,11.54,0.67,16.72,2
		c5.17,1.33,9.71,3.42,13.6,6.24c3.89,2.83,7.01,6.48,9.36,10.96c2.35,4.48,3.68,9.87,4,16.16H1242.44z"/>
	<path fill="#323232" d="M1340.2,283.88h7.84l-45.92,66.4v47.84h-7.04v-47.84l-45.6-66.4h8l41.28,60.48L1340.2,283.88z"/>
	<path fill="#323232" d="M1423.55,316.52c-0.21-4.91-1.25-9.17-3.12-12.8c-1.87-3.62-4.4-6.67-7.6-9.12
		c-3.2-2.45-7.01-4.29-11.44-5.52c-4.43-1.22-9.26-1.84-14.48-1.84c-3.2,0-6.64,0.38-10.32,1.12c-3.68,0.75-7.09,2.05-10.24,3.92
		c-3.15,1.87-5.74,4.38-7.76,7.52c-2.03,3.15-3.04,7.07-3.04,11.76c0,4.59,1.12,8.32,3.36,11.2s5.17,5.2,8.8,6.96
		c3.62,1.76,7.79,3.18,12.48,4.24c4.69,1.07,9.44,2.08,14.24,3.04c4.91,0.96,9.68,2.11,14.32,3.44c4.64,1.33,8.8,3.15,12.48,5.44
		c3.68,2.29,6.64,5.28,8.88,8.96c2.24,3.68,3.36,8.29,3.36,13.84c0,5.98-1.28,10.99-3.84,15.04c-2.56,4.06-5.79,7.36-9.68,9.92
		c-3.9,2.56-8.21,4.4-12.96,5.52c-4.75,1.12-9.31,1.68-13.68,1.68c-6.72,0-13.02-0.72-18.88-2.16c-5.87-1.44-10.99-3.78-15.36-7.04
		c-4.38-3.25-7.82-7.44-10.32-12.56c-2.51-5.12-3.71-11.36-3.6-18.72h7.04c-0.32,6.29,0.58,11.6,2.72,15.92
		c2.13,4.32,5.09,7.87,8.88,10.64c3.79,2.78,8.24,4.78,13.36,6c5.12,1.23,10.5,1.84,16.16,1.84c3.41,0,7.06-0.42,10.96-1.28
		c3.89-0.85,7.46-2.29,10.72-4.32c3.25-2.03,5.97-4.69,8.16-8c2.18-3.3,3.28-7.46,3.28-12.48c0-4.8-1.12-8.72-3.36-11.76
		s-5.2-5.49-8.88-7.36c-3.68-1.87-7.84-3.36-12.48-4.48c-4.64-1.12-9.42-2.16-14.32-3.12c-4.8-0.96-9.55-2.08-14.24-3.36
		c-4.7-1.28-8.86-3.01-12.48-5.2c-3.63-2.19-6.56-5.01-8.8-8.48c-2.24-3.46-3.36-7.92-3.36-13.36c0-5.44,1.15-10.11,3.44-14
		c2.29-3.89,5.28-7.04,8.96-9.44s7.81-4.16,12.4-5.28c4.58-1.12,9.12-1.68,13.6-1.68c5.97,0,11.54,0.67,16.72,2
		c5.17,1.33,9.71,3.42,13.6,6.24c3.89,2.83,7.01,6.48,9.36,10.96c2.35,4.48,3.68,9.87,4,16.16H1423.55z"/>
	<path fill="#323232" d="M1433.96,289.96v-6.08h87.52v6.08h-40.32v108.16h-7.04V289.96H1433.96z"/>
	<path fill="#323232" d="M1529.31,283.88h76.8v6.08h-69.76v45.76h65.6v6.08h-65.6v50.24h70.56v6.08h-77.6V283.88z"/>
	<path fill="#323232" d="M1618.91,283.88h10.08l44.64,106.4h0.32l44.16-106.4h10.08v114.24h-7.04v-105.6h-0.32l-43.52,105.6h-7.04
		l-44-105.6h-0.32v105.6h-7.04V283.88z"/>
</g>
</svg>
